<?xml version="1.0" encoding="UTF-8"?>
<svg version="1.1" xmlns="http://www.w3.org/2000/svg" width="310" height="163">
<path d="M0 0 C102.3 0 204.6 0 310 0 C310 53.79 310 107.58 310 163 C207.7 163 105.4 163 0 163 C0 109.21 0 55.42 0 0 Z " fill="#FEFEFE" transform="translate(0,0)"/>
<path d="M0 0 C7.95870058 4.52968597 12.84837067 10.60913412 15.5 19.4375 C15.5 21.0875 15.5 22.7375 15.5 24.4375 C11.87 24.4375 8.24 24.4375 4.5 24.4375 C4.5 26.0875 4.5 27.7375 4.5 29.4375 C8.13 29.4375 11.76 29.4375 15.5 29.4375 C15.20563837 37.38526394 12.32418 43.67639926 6.60546875 49.30078125 C-0.22572844 54.73070722 -6.89156747 57.06387857 -15.62890625 56.78515625 C-23.7010052 55.80771842 -31.19015774 52.72910996 -36.5 46.4375 C-42.41972677 37.5733258 -44.12394636 28.70861661 -42.0390625 18.08984375 C-38.79856641 8.50178768 -32.38718255 2.85814674 -23.5 -1.5625 C-15.72497598 -4.15417467 -7.35580516 -3.46155537 0 0 Z " fill="#61BB48" transform="translate(83.5,54.5625)"/>
<path d="M0 0 C0.99 -0.33 1.98 -0.66 3 -1 C3 3.95 3 8.9 3 14 C0.73996439 11.73996439 -0.43280398 9.46443936 -1.90234375 6.65625 C-3.05642707 4.68278769 -3.05642707 4.68278769 -6 3 C-8.40850669 2.60873077 -8.40850669 2.60873077 -11 2.625 C-11.86625 2.59664062 -12.7325 2.56828125 -13.625 2.5390625 C-16.11924187 2.79903254 -16.11924187 2.79903254 -17.796875 4.73828125 C-19.14195203 7.26685138 -19.34611088 8.72242341 -19.25 11.5625 C-19.23453125 12.32691406 -19.2190625 13.09132813 -19.203125 13.87890625 C-19.06206055 16.18773737 -19.06206055 16.18773737 -18 19 C-15.79147425 20.10294989 -15.79147425 20.10294989 -13 21 C-10.63970015 21.92194988 -8.28587732 22.86059091 -5.9375 23.8125 C-4.12572266 24.53373047 -4.12572266 24.53373047 -2.27734375 25.26953125 C1.80553746 27.42533146 3.95097641 29.90195281 6 34 C6.71187252 41.17974288 6.96195245 47.53780597 2.4765625 53.4765625 C-0.96451743 57.02688306 -4.43383728 58.16083361 -9.25 58.5 C-14.84400986 58.34752273 -19.25945088 55.77109343 -24 53 C-24 53.66 -24 54.32 -24 55 C-24.66 55 -25.32 55 -26 55 C-26.02701408 52.89590361 -26.04640223 50.79170822 -26.0625 48.6875 C-26.07410156 47.51574219 -26.08570312 46.34398437 -26.09765625 45.13671875 C-26 42 -26 42 -25 39 C-24.34 39 -23.68 39 -23 39 C-22.85304688 39.66386719 -22.70609375 40.32773438 -22.5546875 41.01171875 C-21.02865551 47.15506609 -21.02865551 47.15506609 -17.3125 52.125 C-12.94479697 54.59728473 -10.96502716 54.63047964 -6 54 C-2.25452396 52.27032287 -2.25452396 52.27032287 0 49 C0.51932608 44.66660697 0.5689253 41.11311472 -1.4375 37.1875 C-4.34587937 34.70473712 -7.10114888 33.4682611 -10.6171875 32.03515625 C-16.24991241 29.58815281 -22.18014046 26.35237283 -25.1875 20.8125 C-26.52202249 16.19299908 -26.97204285 12.24935535 -25.0546875 7.8125 C-18.93186006 -2.66177084 -10.9695604 -1.87285177 0 0 Z " fill="#27283D" transform="translate(133,53)"/>
<path d="M0 0 C4.95 0 9.9 0 15 0 C15 0.99 15 1.98 15 3 C14.01 3.495 14.01 3.495 13 4 C14.88626506 11.03670512 16.87672757 18.03124509 19 25 C20.17314026 22.23174812 21.33870215 19.46071514 22.5 16.6875 C22.83386719 15.90181641 23.16773438 15.11613281 23.51171875 14.30664062 C23.82753906 13.54931641 24.14335937 12.79199219 24.46875 12.01171875 C24.76201172 11.31522217 25.05527344 10.61872559 25.35742188 9.90112305 C26.1601016 7.86078928 26.1601016 7.86078928 26 5 C24.68 4.67 23.36 4.34 22 4 C22 3.01 22 2.02 22 1 C26.62 1 31.24 1 36 1 C36 1.66 36 2.32 36 3 C35.34 3.33 34.68 3.66 34 4 C35.35253464 10.45054982 37.03060233 16.71105679 39 23 C41.87884807 16.40721817 44.50865808 10.04998001 46 3 C45.01 3 44.02 3 43 3 C43 2.01 43 1.02 43 0 C46.96 0 50.92 0 55 0 C55 0.99 55 1.98 55 3 C54.40219727 3.02312256 53.80439453 3.04624512 53.18847656 3.07006836 C50.67158435 3.86712043 50.67158435 3.86712043 49.44433594 6.95922852 C48.94151782 8.25965259 48.45592097 9.56681889 47.984375 10.87890625 C47.72368225 11.5655687 47.4629895 12.25223114 47.19439697 12.95970154 C46.36469433 15.15536852 45.55722046 17.358481 44.75 19.5625 C44.19154817 21.0519745 43.63166948 22.54091485 43.0703125 24.02929688 C41.69690452 27.68020475 40.34337634 31.33794094 39 35 C38.01 34.67 37.02 34.34 36 34 C35.03271484 31.97460937 35.03271484 31.97460937 34.2109375 29.34375 C33.90929687 28.40402344 33.60765625 27.46429688 33.296875 26.49609375 C32.99265625 25.50738281 32.6884375 24.51867187 32.375 23.5 C31.76016809 21.55133854 31.14310046 19.6033806 30.5234375 17.65625 C30.25450684 16.78806641 29.98557617 15.91988281 29.70849609 15.02539062 C29.17505105 13.03039424 29.17505105 13.03039424 28 12 C27.74307373 12.6612085 27.48614746 13.32241699 27.22143555 14.00366211 C26.05500964 16.98627852 24.87152683 19.96182947 23.6875 22.9375 C23.28337891 23.97841797 22.87925781 25.01933594 22.46289062 26.09179688 C22.06650391 27.08115234 21.67011719 28.07050781 21.26171875 29.08984375 C20.71970825 30.46450806 20.71970825 30.46450806 20.16674805 31.86694336 C19 34 19 34 16 35 C15.53944214 33.59923218 15.53944214 33.59923218 15.06958008 32.17016602 C13.92568036 28.70962311 12.75455756 25.25882074 11.57495117 21.81030273 C11.06811234 20.3160776 10.56870761 18.81930945 10.0769043 17.32006836 C9.36883052 15.1658983 8.63456503 13.02227406 7.89453125 10.87890625 C7.57232353 9.86951744 7.57232353 9.86951744 7.24360657 8.83973694 C6.54716274 6.72583655 6.54716274 6.72583655 5 4 C2.42647432 2.95762581 2.42647432 2.95762581 0 3 C0 2.01 0 1.02 0 0 Z " fill="#26273D" transform="translate(174,76)"/>
<path d="M0 0 C1.31291016 -0.03867188 1.31291016 -0.03867188 2.65234375 -0.078125 C5.0625 0.25 5.0625 0.25 6.68334961 1.41479492 C8.59423298 3.95756538 8.47759138 5.78114094 8.5390625 8.94140625 C8.57 10.05064453 8.6009375 11.15988281 8.6328125 12.30273438 C8.65988281 14.04006836 8.65988281 14.04006836 8.6875 15.8125 C8.73837203 18.10555657 8.79287357 20.39853643 8.8515625 22.69140625 C8.86912598 23.70920166 8.88668945 24.72699707 8.90478516 25.77563477 C8.90140365 28.25231814 8.90140365 28.25231814 10.0625 30.25 C11.7125 29.92 13.3625 29.59 15.0625 29.25 C14.4375 31.6875 14.4375 31.6875 13.0625 34.25 C10.125 35.25 10.125 35.25 7.0625 35.25 C5.1875 33.9375 5.1875 33.9375 4.0625 32.25 C4.0625 31.59 4.0625 30.93 4.0625 30.25 C3.2375 30.889375 2.4125 31.52875 1.5625 32.1875 C-2.25418714 34.72591425 -5.36812443 35.1750922 -9.9375 35.25 C-11.9375 34.3125 -11.9375 34.3125 -12.9375 32.25 C-13.39673573 29.08637607 -13.64663561 27.25791687 -12.9375 24.25 C-8.80268266 19.69109883 -3.35487164 17.07907186 2.0625 14.25 C2.11649736 12.79207116 2.15529177 11.33357288 2.1875 9.875 C2.21070313 9.06289062 2.23390625 8.25078125 2.2578125 7.4140625 C2.27620051 5.03657757 2.27620051 5.03657757 0.0625 3.25 C-3.53429066 3.57326553 -3.53429066 3.57326553 -6.9375 4.25 C-7.5975 6.89 -8.2575 9.53 -8.9375 12.25 C-10.5875 12.25 -12.2375 12.25 -13.9375 12.25 C-13.79960108 9.28517326 -13.64805664 7.03765516 -11.60546875 4.7734375 C-7.58586974 1.42866168 -5.14852139 0.09072284 0 0 Z " fill="#1F2038" transform="translate(244.9375,75.75)"/>
<path d="M0 0 C3.53714641 2.06333541 5.62328635 4.12017062 7 8 C7 8.99 7 9.98 7 11 C-3.395 12.485 -3.395 12.485 -14 14 C-12.39748891 22.71763528 -12.39748891 22.71763528 -7 28 C-6.67 28.33 -6.34 28.66 -6 29 C-2.13374487 29.183727 1.63720704 29.12266697 4.70703125 26.59375 C6.23754681 24.78139532 6.23754681 24.78139532 8 22 C8.66 22.33 9.32 22.66 10 23 C8.67771571 28.68582243 6.59744698 30.7161093 2 34 C-1.73052567 35.24350856 -5.12552043 35.52198871 -9 35 C-13.83655023 32.58172489 -16.36498898 29.68446404 -19 25 C-20.90914786 18.96709278 -21.07832917 12.28108094 -18.375 6.5625 C-12.83077947 0.58057785 -8.05380917 -1.34454243 0 0 Z " fill="#F6FBF5" transform="translate(74,64)"/>
<path d="M0 0 C3.46527761 2.02141194 5.81941827 4.10408029 7 8 C6.67 9.65 6.34 11.3 6 13 C-0.6 13 -7.2 13 -14 13 C-13.13325796 22.19541156 -13.13325796 22.19541156 -8 29 C-3.38266643 29.59296284 0.62051477 29.66885603 4.5625 27 C5.366875 26.34 6.17125 25.68 7 25 C6.67537556 27.92161999 5.78173807 29.29328947 4 31.6875 C0.04223133 34.73828002 -3.06225547 35.27949497 -8 35 C-12.52618653 33.73860375 -14.45251272 32.69156288 -17.375 29 C-20.56246336 23.11545226 -20.91500813 17.22921083 -19.50390625 10.70703125 C-17.98768548 6.1412365 -16.14801821 3.65898604 -12 1 C-8.29778834 -0.85110583 -4.04093083 -0.46454795 0 0 Z " fill="#353649" transform="translate(166,76)"/>
<path d="M0 0 C8.92989844 -0.62422591 8.92989844 -0.62422591 13 1.75 C15.81303397 4.91466321 17 6.73445227 17 11 C9.38459684 12.5832711 2.70185475 13.26092312 -5 12 C-3.375 5.25 -3.375 5.25 0 3 C0 2.01 0 1.02 0 0 Z " fill="#F5FAF4" transform="translate(64,64)"/>
<path d="M0 0 C0.62133891 10.01046025 0.62133891 10.01046025 -1.6875 13.6875 C-4.38623512 15.21921453 -5.9439171 15.41298418 -9 15 C-10 14 -10 14 -10.4375 10.75 C-10 7 -10 7 -7.1875 4.1875 C-1.08571429 0 -1.08571429 0 0 0 Z " fill="#F7F7F8" transform="translate(248,92)"/>
<path d="M0 0 C3.46092943 0.50310635 5.14413803 1.76664747 7.4453125 4.35546875 C9.45327634 7.41522318 9.4453125 8.50032761 9.4453125 12.35546875 C2.5153125 12.35546875 -4.4146875 12.35546875 -11.5546875 12.35546875 C-11.5546875 12.02546875 -11.5546875 11.69546875 -11.5546875 11.35546875 C-5.1196875 10.86046875 -5.1196875 10.86046875 1.4453125 10.35546875 C1.4453125 8.70546875 1.4453125 7.05546875 1.4453125 5.35546875 C-0.42287001 3.03680316 -0.42287001 3.03680316 -3.4296875 3.23046875 C-4.9765625 3.29234375 -4.9765625 3.29234375 -6.5546875 3.35546875 C-7.8746875 3.35546875 -9.1946875 3.35546875 -10.5546875 3.35546875 C-7.46027981 -0.45692242 -4.65527429 -0.1425084 0 0 Z " fill="#22233A" transform="translate(163.5546875,75.64453125)"/>
<path d="M0 0 C0.66 0.33 1.32 0.66 2 1 C2.40729228 3.32156597 2.74438677 5.6568787 3 8 C4.98 8 6.96 8 9 8 C9 8.99 9 9.98 9 11 C4.69097166 13.21980248 1.68909708 13.08209933 -3 12 C-4.60725635 8.78548731 -4.05748185 5.56387464 -4 2 C-2.125 0.9375 -2.125 0.9375 0 0 Z " fill="#27293E" transform="translate(236,98)"/>
<path d="M0 0 C1.875 1.1875 1.875 1.1875 3 3 C3 4.65 3 6.3 3 8 C-1.62 8 -6.24 8 -11 8 C-8.40113948 1.5028487 -7.29263641 -0.91157955 0 0 Z " fill="#F9F9F9" transform="translate(163,78)"/>
<path d="M0 0 C0.66 0.99 1.32 1.98 2 3 C1.67 4.32 1.34 5.64 1 7 C-4.94 7.495 -4.94 7.495 -11 8 C-10.51970669 2.59670027 -10.51970669 2.59670027 -8.3125 0.0625 C-5.13778084 -1.39615475 -3.30121799 -1.00471852 0 0 Z " fill="#63BC4A" transform="translate(71,67)"/>
<path d="M0 0 C0.66 0 1.32 0 2 0 C2.18175781 0.67546875 2.36351563 1.3509375 2.55078125 2.046875 C2.80214844 2.93890625 3.05351563 3.8309375 3.3125 4.75 C3.55613281 5.63171875 3.79976563 6.5134375 4.05078125 7.421875 C4.87483568 10.06325169 4.87483568 10.06325169 6.66796875 12.140625 C7.10753906 12.75421875 7.54710938 13.3678125 8 14 C7.67 14.99 7.34 15.98 7 17 C5.02 16.01 3.04 15.02 1 14 C1 14.66 1 15.32 1 16 C0.34 16 -0.32 16 -1 16 C-1.02701408 13.89590361 -1.04640223 11.79170822 -1.0625 9.6875 C-1.07410156 8.51574219 -1.08570312 7.34398438 -1.09765625 6.13671875 C-1 3 -1 3 0 0 Z " fill="#2D2E43" transform="translate(108,92)"/>
<path d="M0 0 C1.32 0 2.64 0 4 0 C2.73090537 3.91304179 1.53743024 5.85610288 -2 8 C-4.77052181 8.92350727 -6.56688758 9.16329585 -9.4375 9.1875 C-10.19933594 9.20167969 -10.96117188 9.21585938 -11.74609375 9.23046875 C-14.23347315 8.97612666 -15.84808106 8.24017196 -18 7 C-18 6.01 -18 5.02 -18 4 C-17.505 4.165 -17.01 4.33 -16.5 4.5 C-11.61057786 5.47788443 -7.56470824 5.73241662 -3.0625 3.625 C-0.90297594 2.16078274 -0.90297594 2.16078274 0 0 Z " fill="#1F2038" transform="translate(133,102)"/>
<path d="M0 0 C0.66 0.66 1.32 1.32 2 2 C1.625 5.625 1.625 5.625 1 9 C-0.65 9 -2.3 9 -4 9 C-3.38461538 3.46153846 -3.38461538 3.46153846 -1.4375 1.125 C-0.963125 0.75375 -0.48875 0.3825 0 0 Z " fill="#292A40" transform="translate(235,79)"/>
<path d="M0 0 C4.95 0 9.9 0 15 0 C15 0.99 15 1.98 15 3 C10.05 3 5.1 3 0 3 C0 2.01 0 1.02 0 0 Z " fill="#474759" transform="translate(174,76)"/>
<path d="M0 0 C3.96 0 7.92 0 12 0 C12 0.99 12 1.98 12 3 C8.04 3 4.08 3 0 3 C0 2.01 0 1.02 0 0 Z " fill="#38394D" transform="translate(217,76)"/>
<path d="M0 0 C0.33 0.99 0.66 1.98 1 3 C-1.15343189 6.23014784 -2.27059611 7.75686537 -6 9 C-6.66 8.34 -7.32 7.68 -8 7 C-5.53058944 4.40062046 -2.81939117 2.20979308 0 0 Z " fill="#22233A" transform="translate(172,101)"/>
<path d="M0 0 C1.22589844 0.01353516 1.22589844 0.01353516 2.4765625 0.02734375 C3.41628906 0.04474609 3.41628906 0.04474609 4.375 0.0625 C2.0620518 2.3754482 0.89595125 2.55830975 -2.25 3.1875 C-3.06726563 3.35507813 -3.88453125 3.52265625 -4.7265625 3.6953125 C-5.66628906 3.87707031 -5.66628906 3.87707031 -6.625 4.0625 C-6.625 3.0725 -6.625 2.0825 -6.625 1.0625 C-4.21954362 -0.14022819 -2.67503047 -0.03821472 0 0 Z " fill="#191A34" transform="translate(160.625,75.9375)"/>
<path d="M0 0 C3.96 0 7.92 0 12 0 C11.01 1.485 11.01 1.485 10 3 C6.7 2.67 3.4 2.34 0 2 C0 1.34 0 0.68 0 0 Z " fill="#E5F3E2" transform="translate(59,74)"/>
<path d="M0 0 C0 0.33 0 0.66 0 1 C-1.6396875 1.2165625 -1.6396875 1.2165625 -3.3125 1.4375 C-6.93122987 1.88288104 -6.93122987 1.88288104 -10 3 C-9.625 1.0625 -9.625 1.0625 -9 -1 C-5.79937313 -2.60031344 -3.27728194 -1.03173691 0 0 Z " fill="#35364A" transform="translate(124,54)"/>
<path d="M0 0 C0.99 0.99 1.98 1.98 3 3 C1.625 4.5 1.625 4.5 0 6 C-0.66 6 -1.32 6 -2 6 C-2.99 6.495 -2.99 6.495 -4 7 C-2.92598892 4.08482708 -2.22189824 2.22189824 0 0 Z " fill="#292A40" transform="translate(152,78)"/>
<path d="M0 0 C1.0625 1.875 1.0625 1.875 2 4 C1.67 4.66 1.34 5.32 1 6 C-1.5625 6.625 -1.5625 6.625 -4 7 C-2.92598892 4.08482708 -2.22189824 2.22189824 0 0 Z " fill="#2D2E43" transform="translate(113,54)"/>
<path d="M0 0 C0.99 0.33 1.98 0.66 3 1 C2.34 2.98 1.68 4.96 1 7 C-0.32 6.67 -1.64 6.34 -3 6 C-2.01 4.02 -1.02 2.04 0 0 Z " fill="#333449" transform="translate(195,96)"/>
</svg>
