<?xml version="1.0" encoding="UTF-8"?>
<svg version="1.1" xmlns="http://www.w3.org/2000/svg" width="1572" height="652">
<path d="M0 0 C0.78149791 -0.00465992 1.56299581 -0.00931984 2.36817548 -0.01412097 C4.97871441 -0.02604219 7.58873012 -0.01668677 10.19927311 -0.00736332 C12.0930499 -0.01153749 13.98682419 -0.01701546 15.88059384 -0.02368313 C21.07851578 -0.03814542 26.27627926 -0.03389053 31.4742099 -0.02651632 C37.08235263 -0.02178894 42.69046087 -0.03429067 48.29859257 -0.04453373 C59.28283129 -0.06173522 70.26701283 -0.06255896 81.25126152 -0.05732083 C90.17834574 -0.05328057 99.10541305 -0.05472097 108.03249645 -0.06006908 C109.93780903 -0.06119172 109.93780903 -0.06119172 111.88161277 -0.06233703 C114.46197192 -0.06386849 117.04233107 -0.06540684 119.62269021 -0.066952 C136.94900695 -0.07678156 154.27531382 -0.08094363 171.60163116 -0.07332611 C172.27900893 -0.07302894 172.9563867 -0.07273176 173.65429106 -0.07242559 C179.15494017 -0.06997669 184.65558921 -0.06736509 190.15623825 -0.06474145 C211.61316358 -0.05463859 233.07001066 -0.06299576 254.52692509 -0.086236 C278.63957119 -0.1123105 302.75215869 -0.12510657 326.86482388 -0.11804825 C339.63004299 -0.11455308 352.39519783 -0.11680783 365.16040707 -0.13429928 C376.02661242 -0.14900387 386.89270826 -0.14967941 397.75891142 -0.13222837 C403.30330515 -0.12370188 408.84750307 -0.1216092 414.39188671 -0.13687992 C419.467877 -0.15068756 424.54350303 -0.14601427 429.61947203 -0.12664068 C431.45518062 -0.12286834 433.29091811 -0.12583808 435.12660103 -0.13625234 C445.2659276 -0.18968224 453.69190078 -0.1136279 462.17707157 6.05609798 C467.88771399 12.00823523 470.90501446 18.14180771 470.8525362 26.56670952 C470.00348659 40.18396904 468.60994248 53.74279015 467.208781 67.31269848 C466.836632 70.92460673 466.46873462 74.53694878 466.10015202 78.14922237 C465.21284617 86.83543677 464.31836808 95.52090644 463.4227699 104.20626917 C463.08466087 107.48612517 462.74698806 110.76602602 462.40932016 114.04592745 C460.91765421 128.53454746 459.42373538 143.02293344 457.92361927 157.51068115 C457.55805089 161.04152441 457.1924966 164.57236913 456.82697392 168.10321712 C456.73614191 168.98060983 456.64530991 169.85800254 456.55172542 170.76198291 C455.07933653 184.98825052 453.62083428 199.21590615 452.16804489 213.44418723 C450.67182173 228.09557412 449.16306907 242.74562877 447.64217782 257.39447588 C446.79034693 265.60211243 445.94389992 273.81022386 445.1115427 282.01986027 C444.40318767 289.00610242 443.68341524 295.99105214 442.94911423 302.97461683 C442.57559189 306.53027437 442.20723495 310.08625227 441.85359097 313.64394665 C439.12715079 341.00041764 433.89185627 363.54345294 412.31720829 382.42182064 C408.58105868 385.41476973 404.57614235 387.67586428 400.37238407 389.94281673 C398.51024018 390.97663742 396.64962677 392.01321845 394.79035282 393.05219173 C393.82275028 393.59166439 392.85514774 394.13113705 391.85822392 394.68695736 C386.74066429 397.58927899 381.71691295 400.64538907 376.68488407 403.69281673 C368.13627015 408.85540287 359.53574855 413.91275847 350.87238407 418.88031673 C342.27496923 423.8114991 333.73508241 428.82503918 325.24738407 433.94281673 C315.2829261 439.95102735 305.26087127 445.85077023 295.20050907 451.69672298 C289.98455298 454.72831094 284.78071137 457.78001456 279.5804224 460.83835506 C274.6400052 463.74346317 269.69426953 466.63936253 264.74491215 469.529212 C261.4437049 471.45761189 258.15150582 473.40037264 254.86457157 475.35297298 C238.94757369 484.71388653 223.1395929 487.42546017 204.87238407 483.38031673 C196.32339989 480.88412133 189.057602 476.82522878 181.49738407 472.19281673 C180.32659113 471.4855618 179.1551055 470.77945246 177.98297977 470.07440853 C176.14969888 468.97152878 174.31685082 467.86799587 172.48604679 466.76100826 C166.32521634 463.03709692 160.11601708 459.39777455 153.8996973 455.76749325 C150.8500016 453.98609702 147.80259229 452.20080002 144.75519657 450.41547298 C144.16788258 450.07145947 143.58056858 449.72744595 142.97545719 449.37300777 C133.05372328 443.55927579 123.16155484 437.69537474 113.26593876 431.83734798 C102.70110073 425.58428693 92.12468681 419.35159523 81.53031254 413.14871883 C77.83628031 410.98505481 74.14404289 408.81832879 70.45180607 406.65160275 C67.3439697 404.82824444 64.23480935 403.00721578 61.12287235 401.19086361 C58.0729359 399.4106418 55.02633648 397.62482939 51.98185062 395.83530331 C50.31200635 394.85572597 48.63876847 393.88194062 46.96540165 392.90839291 C27.42671107 381.40205513 11.6383726 366.80248801 4.87238407 344.38031673 C3.2847743 336.19984188 2.30491387 327.96439789 1.45499516 319.68027401 C1.32669618 318.45891668 1.19839721 317.23755934 1.06621039 315.97919118 C0.7145906 312.62453007 0.36626659 309.26955791 0.01942015 305.91440201 C-0.35688973 302.28213115 -0.73749481 298.65030987 -1.11749935 295.01842403 C-1.85979096 287.91698734 -2.59798117 280.81513021 -3.33452655 273.71309544 C-3.93360328 267.9367868 -4.53388809 262.16060497 -5.13501263 256.38450909 C-6.84203921 239.98075471 -8.54601277 223.57668749 -10.24595387 207.1721973 C-10.33741993 206.28954859 -10.42888599 205.40689988 -10.52312374 204.49750423 C-10.6147018 203.61376878 -10.70627985 202.73003333 -10.800633 201.81951801 C-12.28510417 187.49606156 -13.77682628 173.17337082 -15.27185459 158.85101278 C-16.80966361 144.11802749 -18.34209084 129.384491 -19.86893499 114.65036523 C-20.72513923 106.38899953 -21.58351487 98.1278732 -22.44767284 89.86733532 C-23.18323914 82.83558949 -23.91376587 75.80334216 -24.63790585 68.77041008 C-25.00695591 65.18753175 -25.37824726 61.60492577 -25.75589466 58.02294254 C-26.1665149 54.12753318 -26.56583423 50.23100991 -26.9641943 46.33432674 C-27.08344946 45.21989842 -27.20270461 44.1054701 -27.32557356 42.95727122 C-29.78331501 18.50669199 -29.78331501 18.50669199 -23.12761593 9.38031673 C-16.95900763 2.32833977 -9.19694406 -0.08693223 0 0 Z M116.87238407 74.38031673 C111.61348738 82.74550474 110.72185009 90.28721738 110.7386713 99.96279049 C110.73640575 100.92120175 110.73414019 101.87961301 110.73180598 102.86706704 C110.72548143 106.0750278 110.72629436 109.28294614 110.7271204 112.49091244 C110.72412795 114.79243684 110.72072522 117.09396073 110.71694279 119.39548397 C110.70810737 125.64553632 110.70576486 131.89557499 110.705127 138.14563298 C110.70441624 142.05105847 110.70228142 145.95648048 110.69962978 149.8619051 C110.69085536 162.78518671 110.68620988 175.7084586 110.68696026 188.63174305 C110.68700021 189.32793008 110.68704017 190.02411711 110.68708134 190.74140072 C110.68712222 191.43844139 110.6871631 192.13548206 110.68720522 192.85364517 C110.68761158 204.14745295 110.67804372 215.44122737 110.66394297 226.7350255 C110.64956646 238.34161918 110.64285648 249.94819507 110.64353675 261.55479783 C110.64379164 268.06691238 110.64094497 274.57898918 110.6303587 281.09109592 C110.62067265 287.21667724 110.62060208 293.34218474 110.62787533 299.46776867 C110.62892053 301.71351193 110.6265621 303.95925979 110.62051487 306.20499516 C110.61278298 309.27571395 110.61744781 312.34617862 110.62514591 315.41689205 C110.62000235 316.30095661 110.61485879 317.18502117 110.60955936 318.09587556 C110.66502341 328.14011786 112.44325673 336.65317047 119.50910282 344.10687923 C125.31445718 349.40344973 131.91620922 352.3506848 139.87238407 352.38031673 C147.80626694 351.72976662 154.28851828 348.22454884 159.70050907 342.41937923 C164.11920903 336.82092928 166.24529185 332.20445535 165.42951298 324.95307064 C165.29638203 323.90557644 165.16325108 322.85808224 165.02608585 321.77884579 C162.50317909 301.56693151 159.81084877 278.04353664 173.03524494 261.03631306 C178.49736643 254.40067022 184.5930858 248.41631021 190.93488407 242.63031673 C191.50813671 242.10730228 192.08138935 241.58428783 192.67201328 241.04542446 C199.85010393 234.5432148 207.23988664 228.34375261 214.87238407 222.38031673 C217.91165757 226.15302881 220.81333592 229.99655097 223.62238407 233.94281673 C224.28306889 234.86961239 224.28306889 234.86961239 224.95710087 235.81513119 C228.27583048 240.49258775 231.47708907 245.23921511 234.63800907 250.02484798 C237.35989599 254.13148861 240.14916835 258.19182613 242.93488407 262.25531673 C247.75702096 269.29045362 252.56982967 276.33179469 257.37238407 283.38031673 C262.55451973 290.98448721 267.74239646 298.58465955 272.94513798 306.17475033 C275.89970956 310.48739133 278.84156928 314.80824281 281.77082157 319.13812923 C282.43275517 320.11459408 283.09468876 321.09105892 283.77668095 322.09711361 C285.04873753 323.97431108 286.31844268 325.85310512 287.5852747 327.73383236 C294.76899615 339.08306472 294.76899615 339.08306472 304.62238407 347.88031673 C305.7283997 348.57641048 305.7283997 348.57641048 306.85675907 349.28656673 C313.28592897 352.77526358 321.87455995 352.533328 328.77082157 350.54437923 C336.12142082 347.17441219 340.61257382 342.02517198 344.80988407 335.25531673 C347.0364907 329.13564947 347.3260783 321.13738569 344.98102665 315.0766058 C341.84875568 308.50562495 337.78850018 302.65780313 333.55988407 296.75531673 C327.78721105 288.58515457 322.13995216 280.34993087 316.62238407 272.00531673 C311.68134869 264.54470415 306.65435474 257.16910551 301.44953251 249.89057064 C297.12333785 243.80858683 292.99444409 237.60191937 288.87238407 231.38031673 C283.78024 223.69679045 278.61737992 216.08291888 273.26593876 208.5778265 C267.34332941 200.26480317 261.61310282 191.81950868 255.87238407 183.38031673 C257.16452906 180.53527542 258.51522256 178.49309652 260.73671818 176.3023901 C261.61348965 175.4301656 261.61348965 175.4301656 262.50797367 174.5403204 C263.46723255 173.60127361 263.46723255 173.60127361 264.4458704 172.64325619 C265.45838619 171.63994007 265.45838619 171.63994007 266.49135685 170.61635494 C267.95701246 169.16499922 269.42489584 167.71589056 270.89473248 166.26876926 C273.22464846 163.97366717 275.54737691 161.67151615 277.86815739 159.36717892 C284.46766885 152.81653242 291.07811215 146.27700362 297.69782352 139.74677181 C301.74817624 135.75017563 305.78857836 131.74373751 309.82313442 127.73119831 C311.35865214 126.20805104 312.89794871 124.68870311 314.44114971 123.1733408 C316.60699912 121.04620085 318.75998847 118.90676545 320.91071415 116.76434994 C321.86086399 115.84048489 321.86086399 115.84048489 322.83020878 114.89795589 C329.13686188 108.56356146 333.9223423 101.34472787 334.12238407 92.19281673 C333.92829059 83.0554928 330.71614547 77.12553254 324.39191532 70.55609798 C318.27270975 65.27176077 311.83184429 63.94942383 303.90363407 63.84906673 C292.67962002 65.81616198 286.14572027 72.27827697 278.47785282 80.10956478 C277.26911512 81.32163687 276.05904013 82.53237658 274.84774113 83.741889 C271.58068891 87.0114784 268.33234792 90.29909595 265.08702946 93.59023929 C261.68382812 97.03482477 258.26307908 100.46189252 254.84406376 103.890769 C248.37853716 110.38005719 241.92803499 116.88406041 235.48321819 123.39391023 C226.0086491 132.96272244 216.51147262 142.50905606 207.01439762 152.05552292 C205.61459384 153.46267357 204.21479824 154.86983235 202.81501102 156.27699947 C201.79031161 157.3070235 201.79031161 157.3070235 200.74491119 158.35785609 C196.67862213 162.44627985 192.61665663 166.53894017 188.55848694 170.63542306 C186.04131645 173.17591849 183.52231475 175.71459333 181.00304317 178.25300503 C179.83224781 179.43369084 178.66234632 180.61526378 177.49338818 181.79776859 C175.90289683 183.4065719 174.309401 185.01233921 172.71515751 186.61742306 C171.82294498 187.51835029 170.93073246 188.41927752 170.01148319 189.34750557 C167.87238407 191.38031673 167.87238407 191.38031673 165.87238407 192.38031673 C165.88570774 191.06645992 165.89903141 189.75260311 165.91275883 188.39893246 C166.03469199 175.98235555 166.12447757 163.56590104 166.1832571 151.14885998 C166.21449294 144.76595907 166.25682536 138.38354372 166.32502079 132.0009222 C166.39048778 125.83467277 166.42614832 119.66888869 166.44164753 113.50231838 C166.45268474 111.15648485 166.4742376 108.81067514 166.50676441 106.46504116 C167.1591454 88.88777703 167.1591454 88.88777703 159.87238407 73.38031673 C157.36630318 70.93359108 154.92534324 69.08973395 151.87238407 67.38031673 C150.79988407 66.76156673 149.72738407 66.14281673 148.62238407 65.50531673 C136.81171521 61.96211608 124.97135353 64.91137234 116.87238407 74.38031673 Z " fill="#5C2D91" transform="translate(259.1276159286499,113.61968326568604)"/>
<path d="M0 0 C59.68808403 -0.0685638 119.37617253 -0.13216094 179.06428528 -0.16937256 C179.94780571 -0.16992479 180.83132615 -0.17047702 181.74161993 -0.17104598 C200.94328495 -0.18301784 220.14495039 -0.19409854 239.34661646 -0.20426132 C248.76322291 -0.20925063 258.17982926 -0.21443685 267.59643555 -0.21972656 C268.53349689 -0.2202496 269.47055823 -0.22077263 270.43601538 -0.22131152 C300.8043005 -0.23835436 331.17255584 -0.2683977 361.54082293 -0.30518888 C392.75033869 -0.34293053 423.95983798 -0.36754439 455.16937617 -0.37565996 C459.57834934 -0.37681257 463.98732245 -0.37811511 468.39629555 -0.37950897 C469.69790855 -0.37991351 469.69790855 -0.37991351 471.02581677 -0.38032622 C484.9893669 -0.38505155 498.95286605 -0.40359964 512.9163954 -0.42732814 C526.95731107 -0.45089274 540.99817623 -0.459868 555.03911098 -0.45400551 C563.37925283 -0.45096516 571.71920969 -0.45905652 580.05931811 -0.48319017 C586.29084768 -0.49998879 592.52219942 -0.49582732 598.75373594 -0.48359558 C601.27212519 -0.48190589 603.79053006 -0.48697679 606.30888858 -0.49953273 C624.67737305 -0.58578097 639.77691495 0.17815045 654.21484375 12.9609375 C669.01493033 28.24394437 669.30592925 46.6028736 669.25878906 66.55297852 C669.26150425 68.49599335 669.26506813 70.43900716 669.26940918 72.38201904 C669.27847209 77.62364932 669.2750144 82.86520025 669.26865101 88.10683179 C669.26356 93.61182688 669.26829097 99.11681553 669.27142334 104.62181091 C669.27505368 113.86238821 669.27028809 123.10293344 669.26074219 132.34350586 C669.24985623 143.00391919 669.25338803 153.66425603 669.264395 164.32466751 C669.27349064 173.50381642 669.27474213 182.68294238 669.26951766 191.86209434 C669.26641088 197.332942 669.265953 202.80375377 669.27259064 208.27459908 C669.27839678 213.41864707 669.27430772 218.56259704 669.26280212 223.70663452 C669.26017309 225.5866829 669.26089033 227.46673962 669.26532745 229.34678459 C669.30545871 248.08825501 667.91687527 264.81929493 654.23046875 279.03515625 C642.44903502 289.41354708 630.30733154 292.16181533 615.03233528 292.12304783 C613.91952745 292.12420167 612.80671962 292.12535552 611.66019034 292.12654433 C607.91082531 292.12920276 604.16150275 292.12469512 600.41213989 292.12025452 C597.70521678 292.12013379 594.99829492 292.1215233 592.29137218 292.12284368 C586.39553513 292.1249175 580.49970817 292.1232735 574.6038723 292.11920547 C565.83696473 292.11317325 557.07006353 292.11286941 548.30315427 292.11374746 C533.55619765 292.11506179 518.80924551 292.11171832 504.06229019 292.10573006 C489.45870059 292.0998152 474.85511285 292.09596455 460.25152206 292.09487724 C459.34387736 292.0948085 458.43623266 292.09473976 457.50108357 292.09466894 C452.89170791 292.09433061 448.28233224 292.09402923 443.67295657 292.09374207 C411.01569374 292.09164106 378.35843334 292.08490203 345.70117188 292.07543945 C313.9729819 292.06625668 282.2447926 292.05917225 250.51660156 292.05493164 C249.5387841 292.05480011 248.56096663 292.05466859 247.55351833 292.05453308 C237.73396911 292.05321457 227.91441988 292.05193875 218.09487064 292.05069422 C198.09090616 292.04815793 178.08694172 292.04533668 158.08297729 292.04234314 C157.16320579 292.04220585 156.24343429 292.04206856 155.29579092 292.04192711 C93.8638596 292.03272479 32.43192963 292.01687939 -29 292 C-29.14715692 284.6094524 -28.70776992 277.35575165 -28 270 C-27.1520116 269.9996337 -27.1520116 269.9996337 -26.28689212 269.99925999 C35.25594088 269.97253409 96.79877042 269.94086972 158.34158325 269.88336182 C159.2607613 269.88250431 160.17993934 269.8816468 161.12697127 269.8807633 C181.10277149 269.86209805 201.07857075 269.84254558 221.0543692 269.82207905 C230.85037358 269.81204779 240.64637814 269.80221261 250.44238281 269.79248047 C251.4172075 269.79150866 252.39203219 269.79053686 253.39639702 269.7895356 C284.99817932 269.75812358 316.59995308 269.73966098 348.2017483 269.72790753 C380.67435991 269.71576186 413.14693583 269.69056432 445.61952365 269.64892386 C450.20514131 269.6430497 454.79075915 269.63732487 459.37637711 269.63169098 C460.27890014 269.63057752 461.18142317 269.62946406 462.11129539 269.62831686 C476.64447805 269.61077119 491.17763327 269.60700068 505.71082509 269.60837079 C520.31853571 269.60945435 534.92617598 269.59605106 549.53385989 269.56783572 C558.21454267 269.55150955 566.89506635 269.54631553 575.57575875 269.55702825 C581.37484517 269.5630903 587.17379407 269.55467198 592.97284828 269.5345077 C596.27691342 269.52343262 599.58059132 269.52083165 602.8846675 269.53148755 C606.44722559 269.54199428 610.00888113 269.52796682 613.57137871 269.50780869 C614.59274614 269.51671239 615.61411358 269.5256161 616.66643155 269.53478962 C624.47710536 269.44985699 631.36882896 267.83025701 637.62109375 262.95703125 C638.22050781 262.24933594 638.81992188 261.54164063 639.4375 260.8125 C640.05496094 260.11769531 640.67242188 259.42289062 641.30859375 258.70703125 C645.29240798 252.33108838 646.4468814 245.73301759 646.38768005 238.32302856 C646.39306559 237.49822239 646.39845113 236.67341621 646.40399987 235.82361591 C646.41820073 233.08554242 646.41119535 230.3479578 646.40405273 227.60986328 C646.40976045 225.63625706 646.41672626 223.66265415 646.42485046 221.6890564 C646.44275326 216.34599812 646.44161879 211.00310435 646.43590808 205.66002512 C646.43281185 201.19197822 646.43891357 196.72396272 646.44494683 192.25592029 C646.45898121 181.71111417 646.45743999 171.16638908 646.44604492 160.62158203 C646.43456665 149.76008002 646.44863707 138.89882501 646.4754414 128.03735554 C646.49762701 118.69608518 646.50422926 109.35489219 646.49836498 100.01359737 C646.49500085 94.44151129 646.49737437 88.86958349 646.51461601 83.29751968 C646.53012847 78.05576537 646.52608182 72.81437578 646.50731087 67.57263565 C646.5036368 65.65508085 646.50669877 63.73749876 646.51719666 61.81996918 C646.76163217 44.73750459 646.76163217 44.73750459 638.8125 30.0625 C631.59372549 23.84969547 624.42335248 22.40768584 615.10047817 22.49219131 C613.49698582 22.48273569 613.49698582 22.48273569 611.86109969 22.47308904 C608.27863468 22.45682478 604.69683811 22.4689942 601.11436462 22.48101807 C598.52034288 22.47514276 595.92632462 22.46751569 593.33231264 22.458287 C587.69242263 22.44104207 582.05267695 22.43855709 576.41276741 22.44580269 C568.02650195 22.45650933 559.64037859 22.44430212 551.25412884 22.42743097 C537.14627447 22.39969676 523.038465 22.39049903 508.93058586 22.39188385 C494.96303438 22.39319425 480.99552707 22.38625474 467.02798653 22.36830902 C466.15936575 22.36719763 465.29074498 22.36608624 464.39580236 22.36494118 C459.98447467 22.35925405 455.57314719 22.35341965 451.16181976 22.34752855 C419.92046555 22.30607221 388.67912236 22.28309511 357.43774414 22.27099609 C327.08812202 22.25920012 296.73852435 22.23902714 266.38891602 22.20751953 C265.45332669 22.20655158 264.51773737 22.20558363 263.55379686 22.20458635 C254.15818152 22.19485649 244.76256637 22.1849564 235.36695134 22.17493158 C216.22718424 22.15451395 197.08741605 22.13523252 177.94764709 22.11663818 C177.06764115 22.11578185 176.1876352 22.11492553 175.28096241 22.11404325 C116.52065509 22.05699414 57.76032809 22.02643051 -1 22 C-1.12886183 14.59760355 -0.79725902 7.36040917 0 0 Z " fill="#5C2D91" transform="translate(749,176)"/>
<path d="M0 0 C1.43402824 9.58073119 2.61774201 19.15657723 3.61987305 28.79223633 C3.76936297 30.21140203 3.91906842 31.63054505 4.06896973 33.04966736 C4.47010078 36.85430285 4.86786406 40.65928265 5.26465583 44.46437287 C5.51298455 46.84416172 5.76207256 49.22386987 6.01142311 51.60355186 C6.88182047 59.91030664 7.74947789 68.2173422 8.61450195 76.5246582 C9.42073555 84.26666976 10.23306931 92.0080253 11.04815835 99.74910909 C11.74929731 106.41051974 12.44626236 113.07235838 13.13993484 119.73455065 C13.55372085 123.7079631 13.96921733 127.68117867 14.38892174 131.65397072 C14.78197795 135.37588889 15.16986511 139.09830888 15.55367279 142.82119179 C15.69569793 144.19004473 15.83960859 145.55870347 15.9854908 146.92715073 C16.18342915 148.7866254 16.37406342 150.64687336 16.56425476 152.50715637 C16.67319407 153.54995664 16.78213339 154.5927569 16.89437389 155.66715717 C16.92923051 156.43699531 16.96408712 157.20683344 17 158 C14.80338983 160.19661017 10.0491818 159.83330142 6.99609375 160.19140625 C6.0842482 160.30097153 5.17240265 160.4105368 4.23292542 160.52342224 C2.29543229 160.75499105 0.35767274 160.9843396 -1.58032227 161.21166992 C-4.5263953 161.55825256 -7.47120537 161.91435044 -10.41601562 162.27148438 C-12.29941024 162.49537224 -14.1828719 162.718697 -16.06640625 162.94140625 C-17.37781334 163.10075401 -17.37781334 163.10075401 -18.7157135 163.26332092 C-23.85022009 163.85757093 -28.83108939 164.10120474 -34 164 C-35.66721525 155.49587961 -36.83917454 146.96323374 -37.89526367 138.36474609 C-38.07426627 136.92630929 -38.25352891 135.48790482 -38.43302917 134.04953003 C-38.91519646 130.17870814 -39.39335723 126.30740185 -39.87044311 122.43595076 C-40.26958805 119.19944836 -40.67054735 115.96317168 -41.07144052 112.72688544 C-42.0160295 105.10068014 -42.9571615 97.47405358 -43.89624023 89.84716797 C-44.86573393 81.97386532 -45.84169931 74.10138312 -46.8206808 66.22925508 C-47.66201902 59.46183158 -48.49911808 52.69389277 -49.33283597 45.92552626 C-49.83047198 41.88607065 -50.3298058 37.84684266 -50.83333397 33.80811691 C-51.30526748 30.0214986 -51.77194143 26.23426968 -52.23446846 22.44649124 C-52.40549546 21.05341311 -52.57843208 19.66056796 -52.75336456 18.26797485 C-52.99078107 16.37560034 -53.22079685 14.48230161 -53.45036316 12.58895874 C-53.5814255 11.52751333 -53.71248785 10.46606792 -53.84752178 9.3724575 C-53.89783959 8.58954653 -53.94815741 7.80663555 -54 7 C-52.4725917 5.4725917 -50.89761574 5.61476957 -48.77490234 5.33569336 C-47.87661713 5.21564438 -46.97833191 5.0955954 -46.05282593 4.97190857 C-45.07375275 4.84582718 -44.09467957 4.71974579 -43.0859375 4.58984375 C-42.0829361 4.45808243 -41.07993469 4.32632111 -40.04653931 4.19056702 C-37.91655555 3.9119588 -35.78628573 3.63553034 -33.65576172 3.36108398 C-30.40894466 2.94188265 -27.16344367 2.5134381 -23.91796875 2.08398438 C-21.84903151 1.81454171 -19.78002317 1.54564425 -17.7109375 1.27734375 C-16.7440097 1.14923813 -15.77708191 1.02113251 -14.78085327 0.8891449 C-13.86365509 0.77224808 -12.94645691 0.65535126 -12.00146484 0.53491211 C-11.20284027 0.43133896 -10.4042157 0.32776581 -9.58139038 0.22105408 C-6.38157371 -0.05295815 -3.21021137 -0.01328433 0 0 Z " fill="#FAA61A" transform="translate(208,195)"/>
<path d="M0 0 C4.39620224 -0.0809117 8.79091597 -0.14046573 13.1875 -0.1875 C14.43337891 -0.21263672 15.67925781 -0.23777344 16.96289062 -0.26367188 C18.16494141 -0.27333984 19.36699219 -0.28300781 20.60546875 -0.29296875 C21.71043701 -0.3086792 22.81540527 -0.32438965 23.95385742 -0.34057617 C27.43958462 0.04914808 29.2421095 0.85389826 32 3 C33.95714961 6.11545557 34.26575286 8.5816964 34.31884766 12.22753906 C34.33871735 13.26831604 34.35858704 14.30909302 34.37905884 15.38140869 C34.39061005 16.49820007 34.40216125 17.61499146 34.4140625 18.765625 C34.43342865 19.91415955 34.4527948 21.06269409 34.4727478 22.24603271 C34.53252126 25.9139463 34.57892064 29.58189129 34.625 33.25 C34.66318178 35.73699284 34.70223362 38.22397249 34.7421875 40.7109375 C34.83822105 46.80717453 34.92327529 52.90349104 35 59 C35.4058432 58.44769714 35.8116864 57.89539429 36.22982788 57.32635498 C36.7654837 56.60345276 37.30113953 55.88055054 37.85302734 55.13574219 C38.38262054 54.41843933 38.91221375 53.70113647 39.45785522 52.96209717 C45.85283133 44.82565971 56.1108759 41.23117067 65.97265625 39.46875 C78.07284174 38.06582994 88.55112331 40.14956866 98.6875 46.75 C108.13603972 55.94317378 109.72715323 68.37311065 110.08450317 80.98153687 C110.11463029 84.13797806 110.11273202 87.29267516 110.09765625 90.44921875 C110.0962413 91.58784866 110.09482635 92.72647858 110.09336853 93.89961243 C110.08782209 97.49560298 110.07527989 101.09152863 110.0625 104.6875 C110.05747807 107.14257722 110.05291638 109.59765542 110.04882812 112.05273438 C110.03787027 118.03518082 110.02064327 124.01757945 110 130 C114.29 130.33 118.58 130.66 123 131 C123 136.94 123 142.88 123 149 C118.45733795 149.13501968 113.918694 149.23416045 109.375 149.3125 C107.44720703 149.3753418 107.44720703 149.3753418 105.48046875 149.43945312 C94.81448303 149.57761356 94.81448303 149.57761356 91.1640625 146.66796875 C87.96406056 142.72284 87.8714003 139.87415946 87.84228516 134.94311523 C87.83202301 133.69429062 87.82176086 132.445466 87.81118774 131.15879822 C87.80774982 130.49124952 87.8043119 129.82370083 87.80076981 129.13592339 C87.7889393 127.03673392 87.7694719 124.93774637 87.74765015 122.83863831 C87.68620385 116.8702785 87.63220155 110.90193644 87.59863281 104.93334961 C87.57753147 101.27924342 87.54209957 97.6255015 87.49787521 93.9716053 C87.48382805 92.58716217 87.47501862 91.20265454 87.47182083 89.81814384 C87.47089739 76.08791325 87.47089739 76.08791325 81.6875 64 C76.17184754 59.8953284 70.67363543 59.32296452 64 60 C54.4157733 61.76825268 47.42327906 66.56958759 41.31640625 74.07421875 C36.68124739 80.85502979 34.91660168 87.84957343 34.79467773 95.98364258 C34.77473251 97.16448929 34.75478729 98.345336 34.73423767 99.56196594 C34.70916893 101.45908577 34.70916893 101.45908577 34.68359375 103.39453125 C34.66281265 104.69702316 34.64203156 105.99951508 34.62062073 107.34147644 C34.56561816 110.79209263 34.51611341 114.24276635 34.46777344 117.69348145 C34.41739836 121.21953406 34.36179613 124.74550387 34.30664062 128.27148438 C34.1993262 135.18091919 34.09830623 142.09043121 34 149 C26.74 149 19.48 149 12 149 C12.00333092 146.60127121 12.00333092 146.60127121 12.00672913 144.15408325 C12.02696349 129.11480439 12.04203356 114.07553051 12.05181217 99.03624153 C12.05697336 91.3036151 12.06401269 83.57099882 12.07543945 75.83837891 C12.0853917 69.10038429 12.09185472 62.36239702 12.09408849 55.62439525 C12.09539468 52.05510033 12.09847474 48.48582643 12.10573006 44.91653824 C12.11375463 40.93670501 12.11399079 36.95689254 12.11352539 32.97705078 C12.11712067 31.7873468 12.12071594 30.59764282 12.12442017 29.37188721 C12.1230455 28.29212616 12.12167084 27.21236511 12.12025452 26.09988403 C12.12117631 25.1578116 12.1220981 24.21573917 12.12304783 23.24511909 C12.14719775 20.96306534 12.14719775 20.96306534 11 19 C7.34850439 18.39616453 3.69649725 18.25493084 0 18 C0 12.06 0 6.12 0 0 Z " fill="#5C2D91" transform="translate(900,248)"/>
<path d="M0 0 C4.20872148 -0.08105241 8.4158763 -0.14053316 12.625 -0.1875 C14.40970703 -0.22520508 14.40970703 -0.22520508 16.23046875 -0.26367188 C27.57701076 -0.35875463 27.57701076 -0.35875463 32 3 C34.43728604 6.56233427 34.27060128 10.17842261 34.22705078 14.33886719 C34.22734283 15.07096909 34.22763489 15.80307098 34.22793579 16.55735779 C34.22654547 18.97065189 34.21099848 21.38363501 34.1953125 23.796875 C34.19158131 25.47267488 34.18873484 27.14847694 34.18673706 28.82427979 C34.17910897 33.23018439 34.15946756 37.63595667 34.1373291 42.04180908 C34.11685293 46.53957326 34.10773155 51.03735887 34.09765625 55.53515625 C34.07622089 64.3568289 34.04209487 73.17840344 34 82 C36.42555812 81.72395887 38.84855561 81.43558924 41.27172852 81.13989258 C41.95655556 81.0632563 42.6413826 80.98662003 43.34696198 80.90766144 C50.63718092 79.99750538 52.82935183 77.73435782 57.31640625 72.08203125 C58.42822266 70.46361328 58.42822266 70.46361328 59.5625 68.8125 C59.98974365 68.22388184 60.4169873 67.63526367 60.85717773 67.02880859 C63.40177759 63.49274102 65.60898682 59.92888067 67.65625 56.08203125 C73.28432325 46.1611461 73.28432325 46.1611461 78 43 C86.1478507 40.86967106 94.74898437 41.87157355 103 43 C98.44197107 50.56032343 93.39682241 57.53224741 87.98950195 64.50073242 C83.95190464 69.71434023 80.06830818 75.01080588 76.3347168 80.4465332 C73.83333148 84.03362153 71.15445785 87.00104359 68 90 C69.41692277 92.93505431 71.00234341 95.69829683 72.7109375 98.47265625 C76.88682486 105.38049178 80.59348975 112.53597052 84.3203125 119.69335938 C84.866875 120.72138672 85.4134375 121.74941406 85.9765625 122.80859375 C86.46205566 123.73470459 86.94754883 124.66081543 87.44775391 125.61499023 C89.07473034 128.11482238 90.46349445 129.45763997 93 131 C96.6716161 131.67176216 100.26246065 131.77752742 104 132 C104 137.94 104 143.88 104 150 C100.10374894 150.08098443 96.2091837 150.14049807 92.3125 150.1875 C91.20970703 150.21263672 90.10691406 150.23777344 88.97070312 150.26367188 C87.90400391 150.27333984 86.83730469 150.28300781 85.73828125 150.29296875 C84.26935425 150.31653442 84.26935425 150.31653442 82.77075195 150.34057617 C78.30958441 149.79221696 75.87074187 147.95971838 72.88793945 144.67211914 C70.95877956 141.94165813 69.3537992 139.20194507 67.79296875 136.24609375 C67.20580078 135.14330078 66.61863281 134.04050781 66.01367188 132.90429688 C65.41103516 131.76025391 64.80839844 130.61621094 64.1875 129.4375 C60.61109425 122.67860015 57.01604651 115.93422167 53.23828125 109.28515625 C52.68825439 108.31586182 52.13822754 107.34656738 51.5715332 106.34790039 C50.05754395 103.7618156 50.05754395 103.7618156 47 102 C42.71 101.67 38.42 101.34 34 101 C34 117.17 34 133.34 34 150 C26.74 150 19.48 150 12 150 C12.00666183 148.3883194 12.01332367 146.77663879 12.02018738 145.11611938 C12.08089008 129.95912789 12.12610038 114.80217397 12.15543652 99.6450901 C12.17092024 91.85188549 12.19203834 84.05877147 12.22631836 76.265625 C12.25617484 69.47489214 12.27556405 62.68422488 12.28226548 55.89342821 C12.28618416 52.29611428 12.29542441 48.69898806 12.31719017 45.10173416 C12.34126388 41.09068648 12.34197243 37.07996728 12.34057617 33.06884766 C12.351362 31.86979294 12.36214783 30.67073822 12.3732605 29.43534851 C12.36913651 28.34717331 12.36501251 27.25899811 12.36076355 26.1378479 C12.36352893 25.18840113 12.36629431 24.23895435 12.36914349 23.26073647 C12.24732614 22.51469343 12.12550879 21.7686504 12 21 C7.93274566 18.2884971 4.8452389 18.42132512 0 18 C0 12.06 0 6.12 0 0 Z " fill="#5C2D91" transform="translate(789,247)"/>
<path d="M0 0 C9.28673771 8.87654611 11.10789259 21.29617221 11.49047852 33.64916992 C11.52468957 35.82198094 11.54969682 37.99495266 11.56640625 40.16796875 C11.58340073 41.32500809 11.6003952 42.48204742 11.61790466 43.67414856 C11.67051534 47.32437879 11.71114798 50.97459951 11.75 54.625 C11.79393268 58.31462516 11.84049908 62.00416362 11.89280701 65.69367981 C11.92478152 67.97949112 11.95166613 70.26538027 11.97303772 72.55131531 C11.98652756 73.57360733 12.0000174 74.59589935 12.01391602 75.64916992 C12.02342789 76.55229416 12.03293976 77.4554184 12.04273987 78.38591003 C11.96170657 80.43023437 11.96170657 80.43023437 13.1875 81.4375 C15.03641946 81.67113881 16.89238031 81.85053635 18.75 82 C20.544375 82.144375 22.33875 82.28875 24.1875 82.4375 C24.1875 88.3775 24.1875 94.3175 24.1875 100.4375 C19.97847704 100.54557762 15.77223798 100.6248684 11.5625 100.6875 C10.37269531 100.72101563 9.18289063 100.75453125 7.95703125 100.7890625 C-1.93964463 100.89963988 -1.93964463 100.89963988 -5.53125 98.71875 C-7.89938198 96.35061802 -8.83857827 94.89453766 -9.6875 91.6875 C-9.91179687 90.88828125 -10.13609375 90.0890625 -10.3671875 89.265625 C-10.51414062 88.66234375 -10.66109375 88.0590625 -10.8125 87.4375 C-11.34617187 88.02917969 -11.87984375 88.62085938 -12.4296875 89.23046875 C-20.16970093 97.43916812 -28.40327041 102.4936305 -39.8125 103.4375 C-51.16491339 103.68086826 -60.99847938 100.9412132 -69.8125 93.625 C-75.45989254 88.21291548 -78.45247714 82.12369917 -79.05078125 74.3359375 C-79.26062567 64.37384973 -78.21171995 56.85282626 -71.4375 49.25 C-54.94990499 34.24750086 -30.89432315 33.18451812 -9.8125 33.4375 C-10.23790338 31.03894902 -10.6773024 28.64440259 -11.125 26.25 C-11.30192383 25.23969727 -11.30192383 25.23969727 -11.48242188 24.20898438 C-12.40481107 19.36052836 -13.51078624 15.28321386 -17.46875 12.109375 C-25.66950655 8.00899672 -33.74831519 7.85931398 -42.62109375 9.671875 C-45.38916132 10.63897169 -46.8293815 11.22338088 -48.8125 13.4375 C-49.1425 16.4075 -49.4725 19.3775 -49.8125 22.4375 C-56.7425 22.4375 -63.6725 22.4375 -70.8125 22.4375 C-71.35011062 5.23396018 -71.35011062 5.23396018 -65.25 -1.3125 C-48.03102145 -13.84690351 -16.54599125 -13.35146819 0 0 Z M-52.375 58.5 C-56.18594653 63.09267915 -56.16560974 66.95161948 -56.08203125 72.7109375 C-55.69077664 76.66884646 -54.58232524 78.59842913 -51.8125 81.4375 C-46.62149655 85.4181012 -41.27147805 86.13033205 -34.83984375 85.87890625 C-27.12522816 84.75406553 -21.15867961 80.85703211 -16.3515625 74.796875 C-11.04426489 66.66081471 -8.95661273 59.09951627 -9.8125 49.4375 C-32.66651301 48.58811345 -32.66651301 48.58811345 -52.375 58.5 Z " fill="#5C2D91" transform="translate(1114.8125,296.5625)"/>
<path d="M0 0 C6.93 0 13.86 0 21 0 C21 9.9 21 19.8 21 30 C29.25 30 37.5 30 46 30 C46 35.61 46 41.22 46 47 C37.75 47 29.5 47 21 47 C21.07411608 54.54450549 21.15705868 62.08785133 21.26245117 69.63183594 C21.29563094 72.19622722 21.32368432 74.76069031 21.34643555 77.32519531 C21.3801085 81.01919042 21.43243307 84.7125316 21.48828125 88.40625 C21.49467117 89.5461438 21.5010611 90.6860376 21.50764465 91.86047363 C21.65409289 99.85473697 22.70853011 105.53005987 27.1875 112.3125 C33.16913999 118.02828932 40.00419351 118.44473566 48 119 C48 124.94 48 130.88 48 137 C34.32688741 137.44465407 21.85782424 137.42973494 10.93359375 127.96875 C1.75441146 118.62267348 -0.34238763 107.58927628 -0.33988953 94.79742432 C-0.32440567 93.59068054 -0.30892181 92.38393677 -0.29296875 91.140625 C-0.28872391 89.87023376 -0.28447906 88.59984253 -0.28010559 87.29095459 C-0.26627912 83.95683694 -0.23945564 80.6233684 -0.20599365 77.28942871 C-0.17498692 73.87009203 -0.16153575 70.45068755 -0.14648438 67.03125 C-0.11360292 60.3539687 -0.06191883 53.67707261 0 47 C-4.62 47 -9.24 47 -14 47 C-14 41.39 -14 35.78 -14 30 C-9.38 30 -4.76 30 0 30 C0 20.1 0 10.2 0 0 Z " fill="#5C2D91" transform="translate(1216,260)"/>
<path d="M0 0 C3.85459456 -0.08124438 7.70746115 -0.14062344 11.5625 -0.1875 C12.64853516 -0.21263672 13.73457031 -0.23777344 14.85351562 -0.26367188 C21.01215621 -0.31982969 25.65305733 -0.1938114 31 3 C33.81303867 6.03334563 34.37781766 8.05226098 34.39872742 12.15057373 C34.41126556 13.19101334 34.42380371 14.23145294 34.4367218 15.30342102 C34.43528671 16.43918076 34.43385162 17.57494049 34.43237305 18.74511719 C34.44766052 20.54552711 34.44766052 20.54552711 34.46325684 22.38230896 C34.48826727 25.66922024 34.50011168 28.95586308 34.50611091 32.24285412 C34.51549376 35.67957093 34.54169703 39.11615847 34.56611633 42.55279541 C34.6097876 49.05854976 34.63833063 55.56427902 34.66143972 62.07013535 C34.68848809 69.47765848 34.73239977 76.88505159 34.77772844 84.2924819 C34.87058367 99.52825679 34.94166213 114.76405169 35 130 C38.96 130.33 42.92 130.66 47 131 C47 136.94 47 142.88 47 149 C42.62396553 149.13506279 38.25210732 149.23417753 33.875 149.3125 C32.01875 149.3753418 32.01875 149.3753418 30.125 149.43945312 C19.84573519 149.57761529 19.84573519 149.57761529 16.1953125 146.66796875 C13.23307307 143.06795179 12.87451454 140.55807607 12.84178162 136.04560852 C12.8319928 135.02337189 12.82220398 134.00113525 12.81211853 132.94792175 C12.80348534 131.26694145 12.80348534 131.26694145 12.79467773 129.55200195 C12.78477814 128.37138184 12.77487854 127.19076172 12.76467896 125.97436523 C12.73848766 122.73705555 12.71662703 119.49975108 12.69667697 116.262398 C12.67480847 112.87910322 12.64742401 109.49585324 12.62062073 106.1125946 C12.57070552 99.70597054 12.52576235 93.29932159 12.48259836 86.89264888 C12.43321597 79.59885542 12.37830156 72.30510692 12.32291877 65.01135695 C12.20911672 50.00761296 12.10247004 35.00382597 12 20 C8.04 19.67 4.08 19.34 0 19 C0 12.73 0 6.46 0 0 Z " fill="#5C2D91" transform="translate(1146,248)"/>
<path d="M0 0 C4.22955053 -0.08093399 8.45755211 -0.1404757 12.6875 -0.1875 C13.88568359 -0.21263672 15.08386719 -0.23777344 16.31835938 -0.26367188 C17.47529297 -0.27333984 18.63222656 -0.28300781 19.82421875 -0.29296875 C20.88729248 -0.3086792 21.95036621 -0.32438965 23.0456543 -0.34057617 C26.5097807 0.05876738 28.25620152 0.86101888 31 3 C34.11871522 7.10826202 34.43770993 10.69994742 34.41650391 15.69604492 C34.42938194 16.833489 34.42938194 16.833489 34.44252014 17.99391174 C34.46752709 20.48952599 34.47195368 22.9847408 34.4765625 25.48046875 C34.4908756 27.2173229 34.50663318 28.95416571 34.52377319 30.69099426 C34.56558669 35.2555008 34.59061168 39.81993692 34.61126709 44.38458252 C34.64711598 51.70142043 34.70798926 59.01808485 34.76975632 66.33474159 C34.78887541 68.89293498 34.80058326 71.45108188 34.81118774 74.00932312 C34.82139599 75.57026268 34.83175359 77.13120126 34.84228516 78.69213867 C34.84332748 79.4064505 34.84436981 80.12076233 34.84544373 80.85671997 C34.82647454 84.55245089 34.82647454 84.55245089 36 88 C39.65149561 88.60383547 43.30350275 88.74506916 47 89 C47 94.94 47 100.88 47 107 C42.60379776 107.0809117 38.20908403 107.14046573 33.8125 107.1875 C31.94368164 107.22520508 31.94368164 107.22520508 30.03710938 107.26367188 C28.2340332 107.27817383 28.2340332 107.27817383 26.39453125 107.29296875 C25.28956299 107.3086792 24.18459473 107.32438965 23.04614258 107.34057617 C19.56041538 106.95085192 17.7578905 106.14610174 15 104 C12.45705652 100.33011079 12.69364861 96.40862899 12.68115234 92.11035156 C12.67110672 91.31972824 12.6610611 90.52910492 12.65071106 89.71452332 C12.61987074 87.10656446 12.60284164 84.49870832 12.5859375 81.890625 C12.56722653 80.08029293 12.54765317 78.26996958 12.5272522 76.45965576 C12.47591751 71.69876245 12.43629892 66.93784086 12.39910889 62.17681885 C12.35907765 57.31702674 12.30798128 52.45735241 12.2578125 47.59765625 C12.16103737 38.06518689 12.07663762 28.53265104 12 19 C8.04 18.67 4.08 18.34 0 18 C0 12.06 0 6.12 0 0 Z " fill="#5C2D91" transform="translate(1280,290)"/>
<path d="M0 0 C0.74886475 0.00523682 1.49772949 0.01047363 2.26928711 0.01586914 C3.07817383 0.0190918 3.88706055 0.02231445 4.72045898 0.02563477 C5.5705957 0.03401367 6.42073242 0.04239258 7.29663086 0.05102539 C8.15063477 0.05553711 9.00463867 0.06004883 9.88452148 0.06469727 C12.00108749 0.07652166 14.11761771 0.0944577 16.23413086 0.11352539 C16.263009 3.5926748 16.28088773 7.0717937 16.29663086 10.55102539 C16.30500977 11.54424805 16.31338867 12.5374707 16.32202148 13.56079102 C16.32685547 14.97714844 16.32685547 14.97714844 16.33178711 16.42211914 C16.33964233 17.73394165 16.33964233 17.73394165 16.34765625 19.07226562 C16.23413086 21.11352539 16.23413086 21.11352539 15.23413086 22.11352539 C12.57590429 22.24010761 9.95525662 22.29872753 7.29663086 22.30102539 C6.55477539 22.31327148 5.81291992 22.32551758 5.04858398 22.33813477 C3.10899456 22.34341017 1.16989376 22.23541441 -0.76586914 22.11352539 C-2.76586914 20.11352539 -2.76586914 20.11352539 -3.00878906 18.15820312 C-3.00468018 17.37904541 -3.00057129 16.5998877 -2.99633789 15.79711914 C-2.9944043 14.95084961 -2.9924707 14.10458008 -2.99047852 13.23266602 C-2.97823242 12.34772461 -2.96598633 11.4627832 -2.95336914 10.55102539 C-2.95272461 9.6622168 -2.95208008 8.7734082 -2.95141602 7.85766602 C-2.89875257 0.18635697 -2.89875257 0.18635697 0 0 Z " fill="#5C2D91" transform="translate(1295.765869140625,247.886474609375)"/>
</svg>
